<svg width="149" height="31" viewBox="0 0 149 31" fill="none" xmlns="http://www.w3.org/2000/svg">
<path d="M0.869318 30V0.90909H19.5057V5.3267H6.1392V13.2244H18.2273V17.642H6.1392V30H0.869318ZM24.3068 30V0.90909H29.5767V14.2756H29.9318L41.2812 0.90909H47.7159L36.4659 13.9631L47.8153 30H41.4801L32.8011 17.5284L29.5767 21.3352V30H24.3068ZM55.1129 30H49.4879L59.7294 0.90909H66.2351L76.4908 30H70.8658L63.0959 6.875H62.8686L55.1129 30ZM55.2976 18.5938H70.6385V22.8267H55.2976V18.5938ZM100.862 10C100.55 9.04356 100.138 8.18655 99.6264 7.42898C99.1245 6.66193 98.5232 6.00852 97.8224 5.46875C97.1312 4.92898 96.3452 4.51704 95.4645 4.23295C94.5838 3.94886 93.6179 3.80682 92.5668 3.80682C90.8433 3.80682 89.276 4.25189 87.8651 5.14205C86.4541 6.0322 85.3319 7.34375 84.4986 9.0767C83.6652 10.8097 83.2486 12.9356 83.2486 15.4545C83.2486 17.9735 83.67 20.0994 84.5128 21.8324C85.3556 23.5653 86.4967 24.8769 87.9361 25.767C89.3755 26.6572 90.9948 27.1023 92.794 27.1023C94.4607 27.1023 95.9285 26.7472 97.1974 26.0369C98.4759 25.3172 99.4702 24.304 100.18 22.9972C100.9 21.6809 101.26 20.1326 101.26 18.3523L102.339 18.5795H93.5895V15.4545H104.669V18.5795C104.669 20.9754 104.158 23.0587 103.135 24.8295C102.122 26.6004 100.72 27.9735 98.9304 28.9489C97.1501 29.9148 95.1046 30.3977 92.794 30.3977C90.2183 30.3977 87.955 29.7917 86.0043 28.5795C84.063 27.3674 82.5478 25.6439 81.4588 23.4091C80.3793 21.1742 79.8395 18.5227 79.8395 15.4545C79.8395 13.1534 80.1473 11.0843 80.7628 9.24716C81.3878 7.40057 82.2685 5.8286 83.4048 4.53125C84.5412 3.2339 85.8859 2.23958 87.4389 1.5483C88.992 0.857007 90.7012 0.511363 92.5668 0.511363C94.1009 0.511363 95.5308 0.74337 96.8565 1.20739C98.1918 1.66193 99.3802 2.3106 100.422 3.15341C101.473 3.98674 102.349 4.98579 103.05 6.15057C103.75 7.30587 104.233 8.58902 104.499 10H100.862ZM116.668 30.5114C115.286 30.5114 114.031 30.2509 112.904 29.7301C111.777 29.1998 110.882 28.4375 110.219 27.4432C109.557 26.4394 109.225 25.2273 109.225 23.8068C109.225 22.5568 109.471 21.5436 109.964 20.767C110.456 19.9811 111.114 19.3655 111.938 18.9205C112.762 18.4754 113.671 18.1439 114.665 17.9261C115.669 17.6989 116.678 17.5189 117.691 17.3864C119.017 17.2159 120.092 17.0881 120.915 17.0028C121.749 16.9081 122.355 16.7519 122.734 16.5341C123.122 16.3163 123.316 15.9375 123.316 15.3977V15.2841C123.316 13.8826 122.933 12.7936 122.165 12.017C121.408 11.2405 120.257 10.8523 118.714 10.8523C117.113 10.8523 115.859 11.2027 114.95 11.9034C114.04 12.6042 113.401 13.3523 113.032 14.1477L109.85 13.0114C110.418 11.6856 111.176 10.6534 112.123 9.91477C113.079 9.16667 114.121 8.64583 115.248 8.35227C116.384 8.04924 117.502 7.89773 118.6 7.89773C119.301 7.89773 120.106 7.98295 121.015 8.15341C121.933 8.31439 122.819 8.65057 123.671 9.16193C124.533 9.6733 125.248 10.4451 125.816 11.4773C126.384 12.5095 126.668 13.892 126.668 15.625V30H123.316V27.0455H123.146C122.918 27.5189 122.54 28.0256 122.009 28.5653C121.479 29.1051 120.773 29.5644 119.893 29.9432C119.012 30.322 117.937 30.5114 116.668 30.5114ZM117.18 27.5C118.505 27.5 119.623 27.2396 120.532 26.7188C121.451 26.1979 122.142 25.5256 122.606 24.7017C123.079 23.8778 123.316 23.0114 123.316 22.1023V19.0341C123.174 19.2045 122.862 19.3608 122.379 19.5028C121.905 19.6354 121.356 19.7538 120.731 19.858C120.115 19.9527 119.514 20.0379 118.927 20.1136C118.349 20.1799 117.88 20.2367 117.521 20.2841C116.649 20.3977 115.835 20.5824 115.077 20.8381C114.329 21.0843 113.723 21.4583 113.259 21.9602C112.805 22.4527 112.577 23.125 112.577 23.9773C112.577 25.142 113.008 26.0227 113.87 26.6193C114.741 27.2064 115.844 27.5 117.18 27.5ZM148.241 13.0682L145.23 13.9205C145.041 13.4186 144.761 12.9309 144.392 12.4574C144.032 11.9744 143.54 11.5767 142.915 11.2642C142.29 10.9517 141.49 10.7955 140.514 10.7955C139.179 10.7955 138.066 11.1032 137.176 11.7188C136.295 12.3248 135.855 13.0966 135.855 14.0341C135.855 14.8674 136.158 15.5256 136.764 16.0085C137.37 16.4915 138.317 16.8939 139.605 17.2159L142.844 18.0114C144.795 18.4848 146.248 19.2093 147.205 20.1847C148.161 21.1506 148.639 22.3958 148.639 23.9205C148.639 25.1705 148.279 26.2879 147.56 27.2727C146.849 28.2576 145.855 29.0341 144.577 29.6023C143.298 30.1705 141.812 30.4545 140.116 30.4545C137.891 30.4545 136.049 29.9716 134.591 29.0057C133.133 28.0398 132.209 26.6288 131.821 24.7727L135.003 23.9773C135.306 25.1515 135.879 26.0322 136.722 26.6193C137.574 27.2064 138.687 27.5 140.06 27.5C141.622 27.5 142.863 27.1686 143.781 26.5057C144.709 25.8333 145.173 25.0284 145.173 24.0909C145.173 23.3333 144.908 22.6989 144.378 22.1875C143.848 21.6667 143.033 21.2784 141.935 21.0227L138.298 20.1705C136.3 19.697 134.832 18.9631 133.895 17.9688C132.967 16.965 132.503 15.7102 132.503 14.2045C132.503 12.9735 132.848 11.8845 133.54 10.9375C134.241 9.99053 135.192 9.24716 136.395 8.70739C137.607 8.16761 138.98 7.89773 140.514 7.89773C142.673 7.89773 144.368 8.37121 145.599 9.31818C146.84 10.2652 147.721 11.5152 148.241 13.0682Z" fill="#163BBF"/>
</svg>
